<svg width="16" height="16" viewBox="0 0 16 16" fill="none" xmlns="http://www.w3.org/2000/svg">
<g clip-path="url(#clip0_195_410)">
<path d="M13.748 0H2.25201C1.65474 0 1.08193 0.237262 0.659598 0.659592C0.237265 1.08193 0 1.65473 0 2.252V13.748C0 14.3453 0.237265 14.9181 0.659598 15.3404C1.08193 15.7627 1.65474 16 2.25201 16H13.748C14.3453 16 14.9181 15.7627 15.3404 15.3404C15.7628 14.9181 16 14.3453 16 13.748V2.252C16 1.65473 15.7628 1.08193 15.3404 0.659592C14.9181 0.237262 14.3453 0 13.748 0ZM5.33402 12.784C5.33402 12.824 5.30702 12.884 5.25402 12.965C5.17402 13.019 5.11302 13.045 5.07302 13.045H3.22301C3.18301 13.045 3.12301 13.019 3.04301 12.965C2.98901 12.885 2.96201 12.825 2.96201 12.784V6.29C2.96201 6.25 2.98901 6.19 3.04201 6.11C3.12201 6.056 3.18201 6.029 3.22301 6.029H5.07302C5.11302 6.029 5.17302 6.056 5.25302 6.109C5.30702 6.189 5.33402 6.249 5.33402 6.29V12.784ZM5.03302 4.923C4.91804 5.04058 4.7802 5.13336 4.62799 5.19562C4.47578 5.25788 4.31242 5.2883 4.14801 5.285C3.79901 5.285 3.50501 5.165 3.26301 4.923C3.14538 4.80806 3.05256 4.67023 2.9903 4.51801C2.92804 4.36579 2.89765 4.20242 2.90101 4.038C2.90101 3.703 3.02201 3.415 3.26301 3.174C3.37669 3.05335 3.51384 2.95722 3.66603 2.89152C3.81822 2.82582 3.98224 2.79192 4.14801 2.79192C4.31377 2.79192 4.4778 2.82582 4.62999 2.89152C4.78218 2.95722 4.91933 3.05335 5.03302 3.174C5.27302 3.414 5.39402 3.704 5.39402 4.038C5.39402 4.387 5.27402 4.682 5.03302 4.923ZM13.195 12.784C13.1947 12.818 13.1875 12.8516 13.1737 12.8827C13.16 12.9139 13.14 12.9419 13.115 12.965C13.0919 12.9899 13.0639 13.0099 13.0328 13.0237C13.0017 13.0374 12.9681 13.0447 12.934 13.045H11.044C11.004 13.045 10.944 13.019 10.864 12.965C10.81 12.885 10.783 12.825 10.783 12.784V8.824C10.783 8.488 10.723 8.227 10.602 8.039C10.454 7.879 10.213 7.799 9.87799 7.799C9.44903 7.799 9.14103 7.925 8.95302 8.18C8.77903 8.435 8.69202 8.797 8.69202 9.26601V12.784C8.6917 12.818 8.68444 12.8516 8.67069 12.8827C8.65693 12.9139 8.63697 12.9419 8.61202 12.965C8.58876 12.9901 8.56061 13.0101 8.52931 13.0239C8.49801 13.0376 8.46421 13.0448 8.43002 13.045H6.58002C6.54002 13.045 6.48001 13.019 6.40001 12.965C6.34602 12.885 6.32002 12.825 6.32002 12.784V6.29C6.32002 6.25 6.34602 6.19 6.40001 6.11C6.48001 6.056 6.54002 6.029 6.58002 6.029H8.37002C8.42402 6.029 8.47701 6.042 8.53002 6.069C8.55801 6.083 8.58502 6.129 8.61102 6.209V6.31L8.63101 6.35V6.511C9.07402 6.083 9.68403 5.868 10.461 5.868C11.332 5.868 12.002 6.076 12.471 6.491C12.954 6.933 13.195 7.571 13.195 8.401V12.784Z" fill="#AED851"/>
</g>
<defs>
<clipPath id="clip0_195_410">
<rect width="16" height="16" fill="white"/>
</clipPath>
</defs>
</svg>
