<svg width="16" height="16" viewBox="0 0 16 16" fill="none" xmlns="http://www.w3.org/2000/svg">
<g clip-path="url(#clip0_195_414)">
<path d="M13.9935 15.999H2.00078C1.73612 16.0077 1.47253 15.9614 1.22666 15.8631C0.980797 15.7648 0.758014 15.6165 0.5724 15.4276C0.384973 15.2433 0.237514 15.0224 0.139215 14.7786C0.0409149 14.5348 -0.00611845 14.2734 0.00104599 14.0106V2.00078C-0.00770697 1.73612 0.0385522 1.47253 0.136898 1.22666C0.235244 0.980797 0.383537 0.758014 0.5724 0.5724C0.758014 0.383537 0.980797 0.235244 1.22666 0.136898C1.47253 0.0385522 1.73612 -0.00770697 2.00078 0.00104599H13.9992C14.2639 -0.00770697 14.5275 0.0385522 14.7733 0.136898C15.0192 0.235244 15.242 0.383537 15.4276 0.5724C15.6165 0.758014 15.7648 0.980797 15.8631 1.22666C15.9614 1.47253 16.0077 1.73612 15.999 2.00078V13.9992C15.9959 14.5296 15.7835 15.0374 15.4079 15.4119C15.0323 15.7865 14.5239 15.9975 13.9935 15.999ZM8.03999 11.8109C8.58278 11.8109 9.29126 11.8109 10.154 11.8109C11.2967 11.7709 11.9366 11.7367 12.0966 11.7024C12.3457 11.6694 12.5809 11.5686 12.7765 11.411C12.9822 11.2414 13.1365 11.0178 13.2222 10.7654C13.4401 10.0066 13.5289 9.21669 13.485 8.42852V7.52006C13.4819 6.9281 13.4457 6.33677 13.3764 5.74887C13.3371 5.36045 13.1908 4.99056 12.9536 4.68043C12.8508 4.57188 12.7822 4.52045 12.7422 4.51474C12.5787 4.37765 12.3814 4.2869 12.1709 4.25192C10.7855 4.10812 9.39218 4.05659 8 4.09765C7.42865 4.09765 6.74873 4.09765 5.98883 4.13193C5.26293 4.12473 4.53742 4.16864 3.81769 4.26335C3.4845 4.31564 3.18397 4.4935 2.9778 4.76042C2.78867 5.06097 2.66414 5.39759 2.61213 5.74887C2.5491 6.33718 2.51667 6.92838 2.515 7.52006C2.46196 8.48546 2.5214 9.45374 2.69212 10.4054C2.72686 10.6012 2.78241 10.7927 2.85782 10.9768C3.04518 11.303 3.3528 11.5429 3.71485 11.6452L4.14336 11.7138C4.4827 11.7568 4.82409 11.7816 5.16608 11.7881C6.47449 11.7938 7.42865 11.8109 8.03999 11.8109ZM6.85729 9.37696V6.28594L9.29126 7.55434C9.6455 7.73718 9.82262 7.83431 9.82262 7.84002L6.85729 9.37696Z" fill="#AED851"/>
</g>
<defs>
<clipPath id="clip0_195_414">
<rect width="16" height="16" fill="white"/>
</clipPath>
</defs>
</svg>
