<svg width="1092" height="744" viewBox="0 0 1092 744" fill="none" xmlns="http://www.w3.org/2000/svg">
<path opacity="0.32" d="M2.96375 802.896C22.0782 833.006 36.097 866.059 44.4563 900.727C80.0214 668.979 191.696 733.804 337.038 833.176C356.658 844.671 411.666 875.78 407.576 832.524C342.966 693.452 190.036 614.286 120.862 474.325C108.451 454.654 102.461 431.614 103.718 408.391C104.975 385.169 113.418 362.91 127.88 344.693C142.342 326.475 162.108 313.199 184.445 306.699C206.783 300.199 230.588 300.797 252.571 308.41C376.752 349.889 465.962 450.327 577.577 511.775C755.758 637.1 972.823 523.626 909.517 299.522C788.952 312.914 531.642 220.706 606.74 90.7062C721.496 -64.5428 918.29 126.793 954.566 257.451C1289.17 194.166 1313.06 -160.003 1231.97 -431.63L1239.32 -434C1336.83 -153.781 1308.02 214.846 965.117 290.634C1029.31 481.91 868.202 677.038 666.845 624.36C518.657 588.333 408.05 479.718 280.312 406.596C250.319 391.486 200.35 363.34 183.338 404.226C188.376 471.659 254.468 528.662 295.961 581.992C351.798 647.173 415.755 706.903 455.055 785.594C489.908 843.605 447.112 928.814 373.966 907.482C232.951 859.485 124.418 641.781 57.4968 905.467C79.1323 876.314 116.061 848.878 154.352 856.463V859.426C110.548 878.15 89.7423 917.792 58.7413 950.442C56.1439 953.462 52.6561 955.581 48.7786 956.496C44.9011 957.411 40.8334 957.074 37.1594 955.534C33.4854 953.994 30.3939 951.329 28.329 947.923C26.264 944.517 25.3317 940.545 25.6659 936.576C27.2662 891.424 16.1228 846.923 0 804.733L2.96375 802.896ZM859.43 186.641C646.039 -93.4001 488.13 264.561 898.373 263.673C888.367 236.597 875.301 210.753 859.43 186.641ZM49.7909 937.465C49.7909 937.939 49.7316 937.761 49.7909 937.465V937.465Z" fill="#FFF730"/>
</svg>
