<svg width="1440" height="1020" viewBox="0 0 1440 1020" fill="none" xmlns="http://www.w3.org/2000/svg">
<path opacity="0.32" d="M2040.68 423.963C2039.41 374.288 2046.34 324.744 2061.18 277.322C1852.68 528.845 1765.69 371.397 1663.22 148.549C1648.01 120.76 1604.58 44.1883 1578.48 98.818C1556.05 311.306 1682.06 515.436 1664.45 732.255C1665.18 764.653 1655.84 796.481 1637.7 823.337C1619.56 850.193 1593.53 870.751 1563.2 882.169C1532.87 893.588 1499.75 895.302 1468.4 887.075C1437.06 878.848 1409.04 861.087 1388.23 836.246C1269.57 697.746 1234.94 513.82 1145.6 360.451C1022.48 83.0683 681.85 63.2593 596.953 376.445C750.597 446.773 991.975 741.236 809.125 842.839C560.805 946.221 462.739 576.613 512.992 394.471C67.873 230.505 -214.373 636.711 -312.066 1019.43L-322.546 1017C-238.315 612.254 60.1655 192.29 524.156 347.255C584.475 72.6683 916.745 -45.186 1119.59 161.964C1270.83 311.138 1325.18 520.161 1425.42 699.027C1450.43 738.565 1489.97 807.988 1539.59 771.301C1581.87 687.096 1543.74 571.638 1532.37 478.185C1512.35 360.295 1478.72 243.106 1488.13 120.911C1488.04 26.6171 1600.22 -44.5808 1672.33 33.2935C1806.43 191.638 1780.15 529.561 2049 262.318C2002.27 281.67 1938.49 288.018 1898.17 251.533L1900.3 247.992C1966.05 256.979 2019.3 224.497 2079.73 207.672C2085 205.923 2090.68 205.887 2095.97 207.57C2101.26 209.253 2105.88 212.569 2109.16 217.041C2112.45 221.512 2114.23 226.911 2114.26 232.46C2114.29 238.01 2112.56 243.425 2109.32 247.929C2075.06 300.751 2056.5 361.918 2045.54 423.89L2040.68 423.963ZM575.936 547.23C630.289 1034.75 1075.38 719.977 584.587 427.273C577.148 466.799 574.245 507.046 575.936 547.23ZM2081.13 229.592C2081.47 229.025 2081.41 229.28 2081.13 229.592V229.592Z" fill="#FFF730"/>
</svg>
