<svg width="1440" height="1105" viewBox="0 0 1440 1105" fill="none" xmlns="http://www.w3.org/2000/svg">
<path d="M-192.214 815.548C-180.149 860.196 -175.527 906.528 -178.533 952.679C-45.2204 679.389 68.0644 802.678 209.724 981.716C229.586 1003.51 285.703 1063.22 297.304 1008.08C270.892 810.969 112.054 654.032 80.3332 454.065C72.547 424.925 74.0066 394.086 84.5098 365.812C95.013 337.538 114.041 313.226 138.964 296.236C163.887 279.246 193.473 270.418 223.632 270.972C253.791 271.527 283.033 281.436 307.316 299.331C445.08 398.526 516.832 557.264 631.345 676.349C803.661 900.174 1116.12 843.256 1124.08 541.351C969.651 511.498 686.611 298.206 829.668 166.144C1031.55 18.0879 1201.48 330.828 1196.06 506.602C1634.7 557.109 1800.72 127.718 1804.97 -239.887L1814.99 -239.991C1827.75 144.578 1650.07 589.979 1196.34 551.759C1202.12 813.354 927.488 992.942 698.49 850.153C528.905 748.462 433.811 571.356 303.834 431.606C272.522 401.342 221.502 347.24 184.688 391.32C164.948 476.767 224.812 572.814 255.637 654.837C299.655 757.061 355.827 855.662 374.166 968.247C394.968 1053.51 309.156 1142.55 226.816 1087.96C70.7221 974.206 20.224 662.807 -164.215 963.572C-126.197 935.802 -69.9086 916.05 -25.4233 940.191L-26.5647 943.86C-88.0107 950.177 -129.041 991.254 -180.001 1019.75C-184.38 1022.49 -189.515 1023.77 -194.668 1023.41C-199.821 1023.05 -204.727 1021.06 -208.682 1017.74C-212.637 1014.42 -215.438 1009.93 -216.683 1004.91C-217.927 999.9 -217.551 994.622 -215.608 989.836C-196.232 934.537 -192.884 875.137 -196.591 816.681L-192.214 815.548ZM1105.55 382.271C949.251 -46.7109 615.845 335.757 1124.09 492.664C1122.13 455.281 1115.91 418.244 1105.55 382.271ZM-186.082 1000.23C-186.265 1000.82 -186.27 1000.57 -186.082 1000.23V1000.23Z" fill="#F9FAFF"/>
</svg>
