<svg width="1440" height="840" viewBox="0 0 1440 840" fill="none" xmlns="http://www.w3.org/2000/svg">
<g clip-path="url(#clip0_195_381)">
<path opacity="0.32" d="M-276.272 803.124C-252.231 841.004 -234.598 882.589 -224.084 926.204C-179.352 634.645 -38.8922 716.201 143.914 841.218C168.592 855.681 237.778 894.819 232.634 840.398C151.37 665.433 -40.98 565.837 -127.985 389.753C-143.594 365.005 -151.129 336.019 -149.547 306.802C-147.966 277.586 -137.347 249.583 -119.157 226.664C-100.968 203.745 -76.1066 187.042 -48.0113 178.864C-19.9161 170.687 10.0258 171.44 37.6748 181.018C193.866 233.201 306.07 359.561 446.455 436.868C670.565 594.538 943.582 451.778 863.958 169.835C712.315 186.683 388.68 70.6772 483.136 -92.8733C627.472 -288.19 874.992 -47.4732 920.619 116.906C1341.48 37.2884 1371.52 -408.288 1269.53 -750.018L1278.78 -753C1401.42 -400.46 1365.18 63.3056 933.89 158.653C1014.63 399.295 811.994 644.783 558.733 578.51C372.348 533.184 233.23 396.537 72.5661 304.544C34.8417 285.534 -28.0073 250.124 -49.4043 301.562C-43.0671 386.398 40.0606 458.114 92.2484 525.208C162.478 607.211 242.922 682.356 292.351 781.356C336.189 854.339 282.361 961.539 190.361 934.702C12.9972 874.318 -123.511 600.427 -207.683 932.168C-180.47 895.49 -134.023 860.974 -85.8613 870.516L-85.8613 874.243C-140.957 897.801 -167.125 947.673 -206.117 988.75C-209.384 992.549 -213.771 995.216 -218.648 996.366C-223.525 997.517 -228.641 997.093 -233.262 995.156C-237.883 993.218 -241.772 989.866 -244.369 985.581C-246.966 981.296 -248.139 976.298 -247.718 971.306C-245.705 914.5 -259.721 858.514 -280 805.435L-276.272 803.124ZM800.96 27.8207C532.565 -324.495 333.953 125.852 849.942 124.734C837.356 90.6707 820.922 58.1558 800.96 27.8207ZM-217.375 972.423C-217.375 973.02 -217.449 972.796 -217.375 972.423V972.423Z" fill="#FFF730"/>
</g>
<defs>
<clipPath id="clip0_195_381">
<rect width="1440" height="840" fill="white"/>
</clipPath>
</defs>
</svg>
