<svg width="136" height="30" viewBox="0 0 136 30" fill="none" xmlns="http://www.w3.org/2000/svg">
<path d="M32.8823 28.09C31.9736 28.09 31.237 27.3324 31.237 26.3977V4.62645C31.237 3.69182 31.9736 2.93414 32.8823 2.93414H36.2184C37.127 2.93414 37.8636 3.69181 37.8636 4.62645V12.8762C37.8636 13.0023 37.963 13.1046 38.0856 13.1046C38.1559 13.1046 38.222 13.0704 38.2639 13.0124L45.0457 3.61759C45.3561 3.18762 45.846 2.93414 46.3666 2.93414H49.9524C51.3117 2.93414 52.0846 4.5335 51.264 5.64812L45.6975 13.2088C45.2862 13.7675 45.2522 14.5292 45.6121 15.1243L51.8889 25.5039C52.5706 26.6312 51.7825 28.09 50.4919 28.09H46.4723C45.8935 28.09 45.3572 27.7771 45.0602 27.2661L41.3013 20.7983C40.7046 19.7716 39.2891 19.6883 38.5825 20.6382L38.2022 21.1493C37.9826 21.4446 37.8636 21.806 37.8636 22.1777V26.3977C37.8636 27.3324 37.127 28.09 36.2184 28.09H32.8823Z" fill="#F9FAFF"/>
<path d="M60.3731 28.434C58.3867 28.434 56.6863 28.0286 55.272 27.2179C53.8577 26.3991 52.7731 25.2608 52.0183 23.8032C51.2635 22.3374 50.8861 20.6383 50.8861 18.7057C50.8861 16.7732 51.2635 15.0781 52.0183 13.6205C52.7731 12.1547 53.8577 11.0165 55.272 10.2058C56.6863 9.38689 58.3867 8.97746 60.3731 8.97746C62.3595 8.97746 64.0598 9.38689 65.4741 10.2058C66.8884 11.0165 67.973 12.1547 68.7278 13.6205C69.4827 15.0781 69.8601 16.7732 69.8601 18.7057C69.8601 20.6383 69.4827 22.3374 68.7278 23.8032C67.973 25.2608 66.8884 26.3991 65.4741 27.2179C64.0598 28.0286 62.3595 28.434 60.3731 28.434ZM60.4208 23.4224C60.9769 23.4224 61.4576 23.23 61.8629 22.8451C62.2681 22.4603 62.5819 21.9116 62.8044 21.1992C63.0269 20.4868 63.1381 19.6392 63.1381 18.6566C63.1381 17.6657 63.0269 16.8182 62.8044 16.114C62.5819 15.4015 62.2681 14.8529 61.8629 14.468C61.4576 14.0832 60.9769 13.8907 60.4208 13.8907C59.8328 13.8907 59.3282 14.0832 58.9071 14.468C58.486 14.8529 58.1642 15.4015 57.9417 16.114C57.7193 16.8182 57.608 17.6657 57.608 18.6566C57.608 19.6392 57.7193 20.4868 57.9417 21.1992C58.1642 21.9116 58.486 22.4603 58.9071 22.8451C59.3282 23.23 59.8328 23.4224 60.4208 23.4224Z" fill="#F9FAFF"/>
<path d="M72.1613 28.09C71.2527 28.09 70.5161 27.3324 70.5161 26.3977V10.9154C70.5161 9.98079 71.2527 9.22312 72.1613 9.22312H75.4497C76.3584 9.22312 77.095 9.98079 77.095 10.9154V26.3977C77.095 27.3324 76.3584 28.09 75.4497 28.09H72.1613Z" fill="#F9FAFF"/>
<path d="M85.0122 17.4774V26.3977C85.0122 27.3324 84.2756 28.09 83.367 28.09H80.0786C79.1699 28.09 78.4333 27.3324 78.4333 26.3977V10.9154C78.4333 9.98079 79.1699 9.22312 80.0786 9.22312H83.0333C83.9419 9.22312 84.6785 9.98079 84.6785 10.9154V12.6954C84.6785 12.7586 84.7283 12.8098 84.7897 12.8098C84.8372 12.8098 84.8795 12.7786 84.8954 12.7325C85.2969 11.5738 85.9874 10.6619 86.9668 9.99696C87.9759 9.31729 89.1519 8.97746 90.4947 8.97746C91.7898 8.97746 92.9141 9.28453 93.8676 9.89869C94.829 10.5047 95.5719 11.3399 96.0963 12.4045C96.6286 13.469 96.8908 14.685 96.8829 16.0526V26.3977C96.8829 27.3324 96.1463 28.09 95.2376 28.09H91.9492C91.0406 28.09 90.304 27.3324 90.304 26.3977V17.4774C90.3119 16.5439 90.0815 15.811 89.6127 15.2787C89.1519 14.7464 88.5083 14.4803 87.6819 14.4803C87.1416 14.4803 86.6689 14.6031 86.2636 14.8488C85.8664 15.0863 85.5605 15.4302 85.3459 15.8806C85.1314 16.3228 85.0202 16.8551 85.0122 17.4774Z" fill="#F9FAFF"/>
<path d="M103.218 28.3848C102.05 28.3848 101.017 28.1883 100.119 27.7952C99.2293 27.394 98.5301 26.788 98.0216 25.9773C97.5131 25.1667 97.2588 24.1349 97.2588 22.882C97.2588 21.8502 97.4296 20.9699 97.7713 20.2411C98.1129 19.5041 98.5897 18.9022 99.2015 18.4355C99.8133 17.9687 100.524 17.6125 101.335 17.3668C102.153 17.1212 103.035 16.9615 103.981 16.8878C105.006 16.8059 105.828 16.7077 106.448 16.593C107.076 16.4702 107.528 16.3023 107.807 16.0894C108.085 15.8683 108.224 15.5776 108.224 15.2173V15.1682C108.224 14.6768 108.041 14.3002 107.675 14.0381C107.31 13.7761 106.841 13.6451 106.269 13.6451C105.641 13.6451 105.129 13.7884 104.732 14.075C104.718 14.085 104.704 14.0953 104.69 14.1058C104.032 14.6093 103.418 15.3647 102.598 15.3647H99.7406C98.7859 15.3647 98.0112 14.515 98.34 13.593C98.513 13.108 98.7445 12.6422 99.0346 12.1956C99.6703 11.2212 100.596 10.4432 101.812 9.86184C103.027 9.27225 104.545 8.97746 106.364 8.97746C107.675 8.97746 108.851 9.13714 109.892 9.4565C110.933 9.76767 111.819 10.2058 112.55 10.7708C113.281 11.3276 113.837 11.9827 114.219 12.7361C114.608 13.4813 114.803 14.292 114.803 15.1682V26.3977C114.803 27.3324 114.066 28.09 113.157 28.09H109.942C109.23 28.09 108.653 27.4961 108.653 26.7635V25.5288C108.653 25.4781 108.613 25.4369 108.563 25.4369C108.53 25.4369 108.5 25.4557 108.484 25.4855C108.124 26.1673 107.687 26.7203 107.175 27.1442C106.658 27.5782 106.066 27.8935 105.399 28.09C104.74 28.2866 104.013 28.3848 103.218 28.3848ZM105.363 24.1103C105.864 24.1103 106.333 24.0038 106.77 23.7909C107.215 23.578 107.576 23.271 107.854 22.8697C108.132 22.4685 108.271 21.9812 108.271 21.408V20.4488C108.271 20.1563 107.982 19.9553 107.711 20.0446C107.52 20.1101 107.314 20.1715 107.091 20.2288C106.877 20.2861 106.646 20.3394 106.4 20.3885C106.162 20.4376 105.912 20.4827 105.649 20.5236C105.141 20.6055 104.724 20.7406 104.398 20.929C104.08 21.1091 103.842 21.3343 103.683 21.6045C103.532 21.8666 103.456 22.1614 103.456 22.4889C103.456 23.013 103.635 23.4143 103.993 23.6927C104.35 23.9711 104.807 24.1103 105.363 24.1103Z" fill="#F9FAFF"/>
<path d="M122.511 17.4774V26.3977C122.511 27.3324 121.775 28.09 120.866 28.09H117.578C116.669 28.09 115.932 27.3324 115.932 26.3977V10.9154C115.932 9.98079 116.669 9.22312 117.578 9.22312H120.532C121.441 9.22312 122.178 9.98079 122.178 10.9154V12.6954C122.178 12.7586 122.227 12.8098 122.289 12.8098C122.336 12.8098 122.379 12.7786 122.394 12.7325C122.796 11.5738 123.486 10.6619 124.466 9.99696C125.475 9.31729 126.651 8.97746 127.994 8.97746C129.289 8.97746 130.413 9.28453 131.367 9.89869C132.328 10.5047 133.071 11.3399 133.595 12.4045C134.128 13.469 134.39 14.685 134.382 16.0526V26.3977C134.382 27.3324 133.645 28.09 132.737 28.09H129.448C128.54 28.09 127.803 27.3324 127.803 26.3977V17.4774C127.811 16.5439 127.581 15.811 127.112 15.2787C126.651 14.7464 126.007 14.4803 125.181 14.4803C124.641 14.4803 124.168 14.6031 123.763 14.8488C123.365 15.0863 123.06 15.4302 122.845 15.8806C122.63 16.3228 122.519 16.8551 122.511 17.4774Z" fill="#F9FAFF"/>
<path d="M71.4845 6.96137C72.1297 7.57652 72.9039 7.88409 73.8072 7.88409C74.7185 7.88409 75.4927 7.57652 76.1298 6.96137C76.775 6.34623 77.0976 5.60638 77.0976 4.74185C77.0976 3.87732 76.775 3.13748 76.1298 2.52233C75.4927 1.90719 74.7185 1.59961 73.8072 1.59961C72.9039 1.59961 72.1297 1.90719 71.4845 2.52233C70.8393 3.13748 70.5167 3.87732 70.5167 4.74185C70.5167 5.60638 70.8393 6.34623 71.4845 6.96137Z" fill="#F9FAFF"/>
<path d="M17.0862 9.46548C18.6759 8.44936 19.9167 8.05941 20.3944 8.54766C20.8574 9.02082 20.5134 10.2265 19.5868 11.7792C22.5043 12.3096 24.6324 13.2305 25.2593 14.279C24.902 8.60305 20.562 4.04339 15.0846 3.5268C15.9562 4.49875 16.6756 6.66064 17.0862 9.46548Z" fill="#F9FAFF"/>
<path fill-rule="evenodd" clip-rule="evenodd" d="M19.2666 17.9127C22.3705 17.4533 24.6425 16.5939 25.2732 15.5272C25.0431 21.1998 20.8386 25.8161 15.4491 26.5069C15.4567 26.3453 15.4606 26.164 15.4606 25.9606C15.4606 23.3028 14.7898 21.1482 13.9623 21.1482C13.1348 21.1482 12.4639 23.3028 12.4639 25.9606C12.4639 26.1545 12.4675 26.3284 12.4744 26.4841C7.24384 25.7315 3.16726 21.2754 2.83029 15.7752C3.64794 16.7305 5.8148 17.4953 8.69066 17.9175C7.53 19.7135 7.0537 21.1347 7.56616 21.6585C8.22302 22.3298 10.3226 21.3408 12.788 19.3467C12.7462 19.1406 12.7079 18.9238 12.6734 18.6978C11.8192 19.1854 11.1211 19.3315 10.8116 19.0148C10.4892 18.6851 10.6573 17.9244 11.1822 17.0013C9.26976 16.858 7.96879 16.5354 7.96879 15.9501C7.96879 15.3714 9.23991 14.6858 11.1162 14.3098C10.6664 13.4854 10.5282 12.8221 10.8115 12.5323C11.1069 12.2302 11.799 12.3967 12.6527 12.9044C12.9199 11.0384 13.4434 9.77042 14.0455 9.77042C14.6337 9.77042 15.1468 10.9803 15.4193 12.7756C16.213 12.3475 16.8554 12.2319 17.1489 12.5321C17.4418 12.8318 17.3297 13.4874 16.9127 14.2975C18.823 14.6707 20.1221 15.3651 20.1221 15.9501C20.1221 16.5547 18.7338 16.879 16.7173 17.0149C17.2661 17.9415 17.4572 18.6995 17.1488 19.015C16.8661 19.3042 16.2199 19.164 15.4163 18.7062C15.3771 18.9624 15.3329 19.2065 15.2844 19.4368C17.7012 21.3705 19.7474 22.3196 20.3943 21.6585C20.9072 21.1343 20.4296 19.711 19.2666 17.9127ZM14.7946 15.3111C14.7946 14.7938 14.3474 14.3745 13.7957 14.3745C13.244 14.3745 12.7968 14.7938 12.7968 15.3111C12.7968 15.5703 12.909 15.8049 13.0904 15.9744C12.7232 16.1129 12.4639 16.45 12.4639 16.8439C12.4639 17.3612 12.9111 17.7805 13.4628 17.7805C13.8552 17.7805 14.1948 17.5683 14.3582 17.2596C14.5058 17.3734 14.6848 17.44 14.8778 17.44C15.3835 17.44 15.7935 16.9825 15.7935 16.4182C15.7935 15.8539 15.3835 15.3964 14.8778 15.3964C14.8482 15.3964 14.819 15.3979 14.7901 15.401C14.7931 15.3714 14.7946 15.3414 14.7946 15.3111Z" fill="#F9FAFF"/>
<path d="M8.37012 11.7733C5.67707 12.2592 3.65169 13.0774 2.85047 14.0222C3.32035 8.46604 7.61169 4.03558 13.0062 3.5268C12.1267 4.50763 11.4021 6.70021 10.9935 9.54246C9.34675 8.46931 8.05559 8.04728 7.56599 8.54767C7.10361 9.02023 7.44618 10.2234 8.37012 11.7733Z" fill="#F9FAFF"/>
<path fill-rule="evenodd" clip-rule="evenodd" d="M27.9693 15.0001C27.9693 22.9445 21.7082 29.3847 13.9847 29.3847C6.26114 29.3847 0 22.9445 0 15.0001C0 7.05569 6.26114 0.615479 13.9847 0.615479C21.7082 0.615479 27.9693 7.05569 27.9693 15.0001ZM26.0556 15.0001C26.0556 21.8574 20.6512 27.4163 13.9846 27.4163C7.31803 27.4163 1.91367 21.8574 1.91367 15.0001C1.91367 8.14281 7.31803 2.58389 13.9846 2.58389C20.6512 2.58389 26.0556 8.14281 26.0556 15.0001Z" fill="#F9FAFF"/>
<path d="M131.442 4.92557V4.60586H133.294V4.92557H132.548V7.0674H132.188V4.92557H131.442Z" fill="#F9FAFF"/>
<path d="M133.572 4.60586H134.01L134.772 6.51932H134.8L135.562 4.60586H136V7.0674H135.656V5.28615H135.634L134.928 7.0638H134.643L133.938 5.28495H133.915V7.0674H133.572V4.60586Z" fill="#F9FAFF"/>
</svg>
